<svg width="80" height="80" viewBox="0 0 80 80" fill="none" xmlns="http://www.w3.org/2000/svg">
<path d="M39.5954 21.3426C36.5853 21.3426 33.9753 20.8453 33.0466 20.5967L32.293 27.0311C32.293 27.0311 35.1797 29.4305 39.8774 29.4305C44.8978 29.4305 47.724 27.0311 47.724 27.0311L46.8207 20.5967C45.6665 20.8453 42.6056 21.3426 39.5954 21.3426Z" fill="#E7E7E7"/>
<path fill-rule="evenodd" clip-rule="evenodd" d="M35.0893 8.1258C36.36 6.78194 38.1126 6 39.9316 6V4C37.5378 4 35.267 5.02676 33.6361 6.75174C32.9848 7.44051 32.5549 8.10681 32.3052 8.87357C32.0622 9.62019 32.0142 10.3921 32.0142 11.2324C32.0142 11.9504 31.7772 22.0978 31.4686 29.0725C31.2792 33.3512 30.9445 38.8298 30.6567 43.2433C30.5129 45.4491 30.381 47.387 30.2849 48.7735C30.2369 49.4667 30.1979 50.022 30.1709 50.4039L30.1398 50.8422L30.1321 50.9499C30.0496 51.4147 29.6714 52.0101 29.1137 52.5379C28.8434 52.7938 28.5683 52.9974 28.3369 53.1306L28.3105 53.1456C28.1568 53.0489 27.9926 52.9777 27.8222 52.9207C27.4568 52.7986 27.0677 52.8167 26.8594 52.8307C26.7705 52.8367 26.6832 52.8449 26.6121 52.8519C24.7377 51.9579 21.2349 50.2898 20.5499 49.9744C19.2937 49.3959 18.1942 49.7026 17.5008 50.3174C17.4525 50.3602 17.4087 50.4022 17.3694 50.442C16.982 50.2196 16.4496 49.8759 16.0239 49.6012L16.0211 49.5994C15.9032 49.5233 15.7935 49.4525 15.6975 49.3911C15.692 49.3831 15.6851 49.3724 15.6768 49.3584C15.6356 49.289 15.5903 49.1893 15.5466 49.0696C15.5043 48.9536 15.4714 48.8406 15.4491 48.7553C15.4381 48.7135 15.4301 48.6801 15.4252 48.6587L15.4202 48.6364L15.42 48.6354L15.4199 48.6351L15.4198 48.6349L15.4198 48.6348L15.4197 48.6343L15.4197 48.6342L15.4197 48.634L15.4196 48.6335L15.4195 48.6331L15.4195 48.6331L15.4194 48.6329L15.4194 48.6327L15.4176 48.6234L15.4112 48.5888L15.4076 48.5679C15.3986 48.5161 15.3855 48.4356 15.3712 48.3301C15.3426 48.1188 15.3093 47.8095 15.2933 47.4324C15.2604 46.6516 15.428 45.9365 16.0561 45.3967C16.1747 45.2947 16.2996 45.1919 16.428 45.086C17.2047 44.4463 18.1131 43.698 18.5676 42.3866C19.0448 41.0097 18.7262 39.4418 17.5186 38.2308C16.9104 37.6209 16.0767 37.1588 15.2053 36.9892C14.3268 36.8182 13.307 36.9324 12.4969 37.6414C10.9757 38.9725 10.5303 40.468 10.2505 41.6032C10.2228 41.7156 10.1975 41.8204 10.1738 41.9184L10.1737 41.9188L10.1737 41.9191C10.0718 42.3412 9.99975 42.6395 9.89192 42.898C9.78743 43.1485 9.6872 43.2604 9.56372 43.3319C8.99781 43.5657 8.57773 43.6383 8.14662 43.6383C7.02191 43.6383 5.81284 44.5103 4.18689 47.0918C3.34544 48.4278 2.88891 49.4321 2.66778 50.1981C2.44727 50.962 2.44265 51.5543 2.59499 52.0126C2.74052 52.4504 3.04554 52.7092 3.25656 52.8485C3.26469 52.9722 3.26847 53.1202 3.25693 53.2938C3.23139 53.678 3.12828 54.2266 2.78447 54.9162C2.48123 55.5243 2.15409 55.7851 1.74873 56.0977L1.70632 56.1304C1.26577 56.4695 0.682414 56.9186 0.313848 57.8426C-0.388181 59.6025 0.136091 61.4119 1.40309 62.5009C2.08479 63.0868 3.09058 63.409 4.00198 63.4699C4.88177 63.5288 6.02867 63.3615 6.74106 62.528C7.24948 61.9332 7.6553 61.12 7.95941 60.4125C8.22542 59.7937 8.44434 59.1801 8.59712 58.752L8.59714 58.7519C8.62288 58.6798 8.64675 58.6129 8.66865 58.5521C8.89281 57.9301 9.1164 57.6068 9.36611 57.3697C9.64164 57.1081 10.0063 56.8933 10.6493 56.5595C10.756 56.5041 11.055 56.393 11.4265 56.2777C11.5983 56.2244 11.7654 56.1765 11.9038 56.1399C11.9283 56.1335 11.9515 56.1275 11.9733 56.122C12.0086 56.1385 12.0556 56.1622 12.1154 56.1958C12.2968 56.2977 12.5131 56.4428 12.7449 56.6121C12.9737 56.7792 13.2003 56.9569 13.4019 57.1177L13.4182 57.1307C13.3766 57.3795 13.3402 57.6565 13.3402 57.9077C13.3402 58.4917 13.5156 59.1593 14.1544 59.6719C14.7109 60.1183 18.4184 62.7004 20.3601 64.0459C20.4014 64.1274 20.4503 64.22 20.5008 64.3073C20.5621 64.4131 20.6428 64.5416 20.7401 64.6632C20.823 64.7668 20.9874 64.9553 21.236 65.0799C21.5389 65.2318 21.9117 65.2764 22.0743 65.2939C22.0947 65.2961 22.1146 65.2981 22.134 65.3C22.9937 65.9423 23.5405 66.3195 23.9952 66.6332L24.1359 66.7303C24.644 67.0814 25.0583 67.3745 25.7717 67.9611C25.8495 68.025 25.9253 68.087 25.999 68.1474L26.0002 68.1483C26.6737 68.6994 27.1814 69.1149 27.5664 69.6515C27.9556 70.1938 28.2385 70.8999 28.2385 72.0661C28.2385 74.2329 28.1473 75.2434 28.1172 75.4251L27.9242 76.5888H29.1037H39.9316V74.5888H30.1867C30.2164 73.9832 30.2385 73.1513 30.2385 72.0661C30.2385 70.5226 29.8473 69.3996 29.1914 68.4855C28.6416 67.7193 27.9179 67.1301 27.2756 66.6071C27.1963 66.5425 27.1182 66.4789 27.0418 66.4161C26.272 65.7832 25.8098 65.4559 25.2729 65.0849L25.1317 64.9874C24.6421 64.6497 24.0648 64.2514 23.0982 63.5231L22.8415 63.3296L22.5217 63.3221L22.5213 63.322L22.5208 63.322L22.5205 63.322L22.5204 63.322L22.5203 63.322L22.5201 63.322L22.5094 63.3216C22.4985 63.3212 22.4813 63.3205 22.4593 63.3193C22.4145 63.3168 22.3538 63.3125 22.2892 63.3055C22.2678 63.3032 22.2471 63.3007 22.2276 63.2981C22.195 63.2414 22.1621 63.1783 22.1298 63.1136L22.1029 63.0591L22.0826 63.0174L22.0599 62.9705L22.0376 62.9253L21.923 62.6955L21.712 62.5493C19.7903 61.2188 15.9112 58.5172 15.4059 58.1118C15.3669 58.0805 15.3608 58.0644 15.3591 58.0599L15.3588 58.0593C15.3539 58.0473 15.3402 58.006 15.3402 57.9077C15.3402 57.8051 15.3546 57.6749 15.3853 57.4938C15.3999 57.4081 15.4164 57.3203 15.435 57.2214L15.4372 57.2095C15.4561 57.109 15.477 56.9975 15.4959 56.8838L15.5953 56.2855L15.1107 55.9208C15.0467 55.8727 14.9576 55.8012 14.8364 55.7041C14.7808 55.6595 14.7185 55.6096 14.6488 55.554C14.5072 55.441 14.3452 55.3132 14.1734 55.1826C15.1316 54.4518 15.75 53.2981 15.75 52C15.75 51.9316 15.7483 51.8635 15.7449 51.7959C16.06 51.9929 16.373 52.1816 16.6116 52.3085C16.9126 52.4687 17.3731 52.6678 17.8866 52.5273C18.287 52.4178 18.5274 52.1465 18.6177 52.0446L18.6211 52.0408C18.6631 51.9934 18.6928 51.9588 18.7162 51.9316L18.7163 51.9315C18.7627 51.8774 18.7842 51.8524 18.8277 51.8139C18.9039 51.7463 19.0021 51.6933 19.1229 51.6744C19.2383 51.6564 19.4301 51.6606 19.7133 51.791C20.4128 52.1131 24.1845 53.9096 25.9915 54.7717L26.1957 54.8692H26.422C26.5336 54.8692 26.6567 54.8571 26.7325 54.8497L26.7381 54.8491L26.7775 54.8453L26.7781 54.8452L26.7785 54.8452C26.856 54.8375 26.9235 54.8309 26.9935 54.8262C27.0741 54.8208 27.135 54.8198 27.1794 54.822C27.1865 54.8224 27.1925 54.8228 27.1974 54.8232L27.2073 54.8242L27.2109 54.8255L27.5022 55.2764H28.0467C28.5193 55.2764 28.9872 55.064 29.3349 54.8638C29.7199 54.6421 30.1197 54.3396 30.4886 53.9905C31.1962 53.3207 31.9488 52.3262 32.1154 51.2137L32.1211 51.1757L32.1238 51.1373L31.1264 51.0656C32.1238 51.1373 32.1238 51.1373 32.1238 51.1372L32.1239 51.1367L32.124 51.1348L32.1245 51.1275L32.1266 51.0985L32.1347 50.9845L32.166 50.5449C32.193 50.1621 32.2321 49.6059 32.2802 48.9116C32.3763 47.5232 32.5085 45.5825 32.6525 43.3734C32.9404 38.9573 33.2763 33.4615 33.4666 29.1609C33.568 26.8701 33.6618 24.2358 33.742 21.7028C34.1679 22.1178 34.803 22.4824 35.5883 22.7704L35.5882 22.7831C35.5882 23.9077 37.4723 24.8193 39.7964 24.8193C42.0635 24.8193 43.9119 23.9519 44.0012 22.8655C44.9133 22.5643 45.6474 22.1644 46.1215 21.7019C46.2018 24.2352 46.2956 26.8698 46.397 29.1609C46.5873 33.4615 46.9232 38.9573 47.2111 43.3734C47.3551 45.5825 47.4873 47.5232 47.5834 48.9116C47.6315 49.6059 47.6706 50.1621 47.6976 50.5449L47.7288 50.9845L47.737 51.0985L47.7391 51.1275L47.7396 51.1348L47.7397 51.1367L47.7397 51.1372C47.7398 51.1373 47.7398 51.1373 48.7372 51.0656L47.7398 51.1373L47.7425 51.1757L47.7482 51.2137C47.9148 52.3262 48.6673 53.3207 49.375 53.9905C49.7439 54.3396 50.1437 54.6421 50.5286 54.8638C50.8764 55.064 51.3442 55.2764 51.8169 55.2764H52.3614L52.6527 54.8255L52.6562 54.8242L52.669 54.823L52.6842 54.822C52.7286 54.8198 52.7895 54.8208 52.8701 54.8262C52.9402 54.8309 53.0078 54.8376 53.0855 54.8452L53.0861 54.8453L53.1254 54.8491L53.1311 54.8497C53.2069 54.8571 53.3299 54.8692 53.4415 54.8692H53.6679L53.8721 54.7717C55.6791 53.9096 59.4508 52.1131 60.1502 51.791C60.4335 51.6606 60.6253 51.6564 60.7407 51.6744C60.8615 51.6933 60.9597 51.7463 61.0359 51.8139C61.0794 51.8524 61.1009 51.8774 61.1473 51.9315C61.1707 51.9587 61.2004 51.9934 61.2425 52.0408L61.2459 52.0446C61.3361 52.1465 61.5766 52.4178 61.977 52.5273C62.4905 52.6678 62.951 52.4687 63.252 52.3085C63.5953 52.1259 64.0926 51.8153 64.5286 51.5365C64.6912 52.893 65.5327 54.0409 66.7036 54.6304C65.964 55.1014 65.0851 55.6709 64.7529 55.9208L64.2682 56.2855L64.3677 56.8838C64.3866 56.9975 64.4075 57.109 64.4264 57.2095L64.4286 57.2214L64.4287 57.2219C64.4473 57.3206 64.4637 57.4082 64.4782 57.4938C64.509 57.6749 64.5234 57.8051 64.5234 57.9077C64.5234 58.006 64.5097 58.0473 64.5048 58.0593L64.5045 58.0599C64.5028 58.0644 64.4966 58.0805 64.4577 58.1118C63.9523 58.5172 60.0732 61.2188 58.1516 62.5493L57.9405 62.6955L57.826 62.9253C57.8136 62.9501 57.7994 62.9794 57.7867 63.0054L57.7809 63.0174C57.7658 63.0487 57.7503 63.0805 57.7337 63.1136C57.7015 63.1783 57.6686 63.2414 57.636 63.2981L57.6076 63.3017L57.5744 63.3055C57.5098 63.3125 57.4491 63.3168 57.4043 63.3193C57.3823 63.3205 57.365 63.3212 57.3542 63.3216L57.3435 63.322L57.3433 63.322L57.3432 63.322L57.3431 63.322L57.3428 63.322L57.3423 63.322L57.3419 63.3221L57.0221 63.3296L56.7653 63.5231C55.7988 64.2514 55.2215 64.6497 54.7319 64.9874L54.7319 64.9874L54.5906 65.0849C54.0538 65.4559 53.5916 65.7832 52.8218 66.4161C52.746 66.4784 52.6684 66.5416 52.5897 66.6057L52.5879 66.6071C51.9456 67.1301 51.222 67.7193 50.6722 68.4855C50.0163 69.3996 49.625 70.5226 49.625 72.0661C49.625 73.1513 49.6472 73.9832 49.6768 74.5888H39.932V76.5888H50.7599H51.9394L51.7464 75.4251C51.7163 75.2434 51.625 74.2329 51.625 72.0661C51.625 70.8999 51.908 70.1938 52.2972 69.6515C52.6822 69.1149 53.1899 68.6994 53.8633 68.1483L53.8646 68.1473C53.9383 68.087 54.0141 68.025 54.0918 67.9611C54.8053 67.3745 55.2196 67.0814 55.7277 66.7303L55.8683 66.6332C56.3231 66.3195 56.8699 65.9423 57.7296 65.3L57.7653 65.2965L57.7892 65.2939C57.9519 65.2764 58.3246 65.2318 58.6276 65.0799C58.8762 64.9553 59.0405 64.7668 59.1234 64.6632C59.2207 64.5416 59.3014 64.4131 59.3627 64.3073C59.4133 64.22 59.4621 64.1274 59.5035 64.0459C61.4452 62.7004 65.1526 60.1183 65.7092 59.6719C66.348 59.1593 66.5234 58.4917 66.5234 57.9077C66.5234 57.6715 66.4912 57.4125 66.4527 57.1756C66.9404 56.8512 67.6378 56.4051 68.1813 56.0615C68.4876 56.1875 68.8092 56.3491 69.2143 56.5595C69.8572 56.8933 70.2219 57.1081 70.4975 57.3697C70.7472 57.6068 70.9708 57.9301 71.1949 58.5521C71.2168 58.6129 71.2407 58.6798 71.2664 58.7519L71.2665 58.7523L71.2669 58.7532C71.4196 59.1813 71.6384 59.7942 71.9042 60.4125C72.2083 61.12 72.6141 61.9332 73.1225 62.528C73.8349 63.3615 74.9818 63.5288 75.8616 63.4699C76.773 63.409 77.7788 63.0868 78.4605 62.5009C79.7275 61.4119 80.2518 59.6025 79.5497 57.8426C79.1812 56.9186 78.5978 56.4695 78.1573 56.1304L78.1148 56.0977C77.7095 55.7851 77.3823 55.5243 77.0791 54.9162C76.7353 54.2266 76.6322 53.678 76.6066 53.2938C76.5951 53.1202 76.5989 52.9722 76.607 52.8485C76.818 52.7092 77.1231 52.4504 77.2686 52.0126C77.511 51.2833 77.748 49.5666 75.9868 46.7703C75.1187 45.3921 74.2931 44.5902 73.5293 44.1414C72.7376 43.6763 72.0924 43.6383 71.717 43.6383C71.2859 43.6383 70.8658 43.5657 70.2999 43.3319C70.1764 43.2604 70.0761 43.1485 69.9717 42.898C69.8638 42.6395 69.7918 42.3412 69.6899 41.9191C69.6662 41.8209 69.6409 41.7159 69.6131 41.6032C69.3333 40.468 68.8879 38.9725 67.3667 37.6414C66.5565 36.9324 65.5367 36.8182 64.6583 36.9892C63.7869 37.1588 62.9532 37.6209 62.345 38.2308C61.1374 39.4418 60.8188 41.0097 61.296 42.3866C61.7505 43.698 62.6589 44.4463 63.4355 45.086C63.564 45.1919 63.6889 45.2947 63.8075 45.3967C64.4355 45.9365 64.6032 46.6516 64.5702 47.4324C64.5543 47.8095 64.521 48.1188 64.4924 48.3301C64.4781 48.4356 64.465 48.5161 64.456 48.5679C64.4515 48.5938 64.4481 48.6125 64.446 48.6234L64.4442 48.6327L64.4441 48.6329L64.4441 48.6331L64.444 48.6335L64.4439 48.634L64.4439 48.6342L64.4438 48.6343L64.4437 48.6348L64.4437 48.6349L64.4437 48.6351L64.4436 48.6354L64.4434 48.6364L64.4384 48.6587C64.4358 48.6699 64.4324 48.6843 64.4282 48.7015L64.4217 48.7277L64.4145 48.7553C64.3922 48.8406 64.3593 48.9536 64.317 49.0696C64.2733 49.1893 64.228 49.289 64.1868 49.3584L64.1798 49.3699L64.1752 49.3772L64.1661 49.3911L64.0466 49.4678L63.8513 49.5937L63.8453 49.5975L63.8445 49.5981L63.8397 49.6012L63.8396 49.6012C63.4139 49.876 62.8815 50.2196 62.4942 50.442C62.4548 50.4022 62.4111 50.3602 62.3628 50.3174C61.6694 49.7026 60.5699 49.3959 59.3137 49.9744C58.6287 50.2898 55.1259 51.9579 53.2515 52.8519C53.1803 52.8449 53.0931 52.8367 53.0042 52.8307C52.7958 52.8167 52.4067 52.7986 52.0413 52.9207C51.871 52.9777 51.7068 53.0489 51.553 53.1456L51.5266 53.1306C51.2953 52.9974 51.0201 52.7938 50.7498 52.5379C50.1922 52.0101 49.814 51.4147 49.7315 50.9499L49.7238 50.8422L49.6926 50.4039C49.6656 50.022 49.6266 49.4667 49.5786 48.7735C49.4826 47.387 49.3507 45.4491 49.2069 43.2433C48.9191 38.8298 48.5844 33.3512 48.395 29.0725C48.0863 22.0978 47.8493 11.9504 47.8493 11.2324C47.8493 10.3921 47.8014 9.62019 47.5583 8.87357C47.3087 8.10681 46.8787 7.44051 46.2275 6.75174C44.5965 5.02676 42.3258 4 39.932 4V6C41.751 6 43.5036 6.78194 44.7743 8.1258C45.2759 8.65641 45.5202 9.07401 45.6566 9.49276C45.7995 9.93165 45.8493 10.4468 45.8493 11.2324C45.8493 11.6592 45.9243 15.0489 46.0448 19.1763C44.9467 18.1776 42.6218 17.4888 39.9313 17.4888C37.2416 17.4888 34.9173 18.1772 33.8189 19.1754C33.9393 15.0484 34.0142 11.6592 34.0142 11.2324C34.0142 10.4468 34.0641 9.93165 34.207 9.49276C34.3433 9.07401 34.5876 8.65641 35.0893 8.1258ZM70.0545 54.7423C70.0815 54.7563 70.1087 54.7703 70.1358 54.7845C70.7658 55.1115 71.3691 55.4394 71.8745 55.9193C72.4057 56.4236 72.776 57.0404 73.0765 57.874L73.129 58.0206L73.1537 58.0896L73.1537 58.0897C73.3075 58.5202 73.5029 59.0673 73.7416 59.6227C74.0291 60.2914 74.339 60.8731 74.6428 61.2285C74.7426 61.3453 75.0849 61.5174 75.7282 61.4744C76.3398 61.4335 76.8909 61.2127 77.1568 60.9842C77.7851 60.4442 78.073 59.5386 77.6921 58.5836C77.5311 58.1801 77.3283 58.0169 76.8933 57.6814C76.4187 57.3153 75.7983 56.8294 75.2893 55.8086C74.8208 54.8692 74.6532 54.0604 74.6111 53.4264C74.5901 53.112 74.6008 52.8503 74.616 52.6515C74.6224 52.5683 74.6298 52.4938 74.6351 52.4406L74.6375 52.4171C74.6411 52.3803 74.6424 52.3637 74.6428 52.3596C74.6487 51.9019 74.9029 51.6013 75.0852 51.4477C75.2015 51.3499 75.3407 51.2703 75.4079 51.2334C75.4765 50.8555 75.5118 49.7689 74.2945 47.8362C73.5381 46.6352 72.9226 46.1046 72.5161 45.8658C72.1374 45.6433 71.883 45.6383 71.717 45.6383C70.9835 45.6383 70.2896 45.4986 69.4792 45.1565L69.443 45.1412L69.4081 45.1232C68.7299 44.7718 68.3566 44.2213 68.1258 43.6681C67.9505 43.2477 67.833 42.7562 67.7307 42.3283L67.7297 42.3241L67.6953 42.1808L67.6712 42.0818C67.4219 41.0705 67.1021 40.0675 66.0496 39.1465C65.8288 38.9532 65.4949 38.8639 65.0404 38.9523C64.5789 39.0422 64.1006 39.3027 63.7612 39.643C63.0736 40.3325 62.9683 41.1044 63.1857 41.7316C63.4444 42.4781 63.8824 42.8456 64.6486 43.4884L64.6489 43.4887C64.7913 43.6082 64.9451 43.7372 65.1112 43.88C66.3784 44.9691 66.6156 46.3987 66.5685 47.5167C66.5679 47.5288 66.5674 47.5409 66.5669 47.5528C67.1399 47.2359 67.7989 47.0555 68.5 47.0555C70.7091 47.0555 72.5 48.8464 72.5 51.0555C72.5 52.7134 71.4915 54.1356 70.0545 54.7423ZM7.75 52C7.75 53.2347 8.30947 54.3388 9.18873 55.0726C8.75649 55.3142 8.34808 55.5784 7.98907 55.9193C7.45783 56.4236 7.08753 57.0404 6.7871 57.874C6.76265 57.9419 6.73693 58.0139 6.70992 58.0896L6.7099 58.0896C6.55614 58.5201 6.36072 59.0673 6.12197 59.6227C5.83452 60.2914 5.5246 60.8731 5.22077 61.2285C5.12093 61.3453 4.77863 61.5174 4.13538 61.4744C3.52375 61.4335 2.97265 61.2127 2.70674 60.9842C2.07852 60.4442 1.79055 59.5386 2.17151 58.5836C2.33248 58.1801 2.53524 58.0169 2.97028 57.6814C3.44484 57.3153 4.06531 56.8294 4.57431 55.8086C5.04274 54.8692 5.21038 54.0604 5.25252 53.4264C5.27343 53.112 5.26282 52.8503 5.24757 52.6515C5.24118 52.5683 5.23374 52.4938 5.22843 52.4406L5.22608 52.4171C5.22245 52.3803 5.22116 52.3637 5.22078 52.3596C5.21487 51.9019 4.96065 51.6013 4.77833 51.4477C4.68021 51.3651 4.56568 51.2955 4.49191 51.2536C4.49786 51.1525 4.52066 50.9906 4.58931 50.7528C4.74046 50.2292 5.09617 49.4009 5.8792 48.1577C6.66466 46.9106 7.2427 46.2613 7.63718 45.9317C7.83007 45.7705 7.96384 45.6987 8.04126 45.6668C8.11112 45.638 8.14276 45.6383 8.14639 45.6383H8.14662C8.88007 45.6383 9.574 45.4986 10.3844 45.1565L10.4206 45.1412L10.4555 45.1232C11.1337 44.7718 11.5069 44.2213 11.7377 43.6681C11.9131 43.2477 12.0306 42.7562 12.1329 42.3283L12.133 42.328C12.1533 42.2431 12.173 42.1607 12.1924 42.0818C12.4417 41.0705 12.7614 40.0675 13.814 39.1465C14.0348 38.9532 14.3687 38.8639 14.8231 38.9523C15.2847 39.0422 15.763 39.3027 16.1024 39.643C16.79 40.3325 16.8953 41.1044 16.6779 41.7316C16.4191 42.4781 15.9811 42.8456 15.215 43.4884C15.0725 43.608 14.9186 43.7371 14.7524 43.88C13.4852 44.9691 13.2479 46.3987 13.2951 47.5167C13.3084 47.8311 13.3319 48.1079 13.3571 48.3359C12.8653 48.1199 12.3216 48 11.75 48C9.54086 48 7.75 49.7909 7.75 52ZM42.4663 21.2091C43.0324 21.0887 43.5253 20.9323 43.9252 20.7563C44.1511 20.657 44.3262 20.5606 44.4585 20.4752C44.3262 20.3898 44.1511 20.2935 43.9252 20.1941C43.0056 19.7895 41.5951 19.4888 39.9313 19.4888C38.2675 19.4888 36.857 19.7895 35.9374 20.1941C35.7115 20.2935 35.5364 20.3898 35.4041 20.4752C35.5364 20.5606 35.7115 20.657 35.9374 20.7563C36.2965 20.9143 36.7304 21.0565 37.2251 21.1711C37.9362 20.9051 38.8281 20.7469 39.7964 20.7469C40.81 20.7469 41.7399 20.9203 42.4663 21.2091ZM11.75 54C12.8546 54 13.75 53.1046 13.75 52C13.75 50.8954 12.8546 50 11.75 50C10.6454 50 9.75 50.8954 9.75 52C9.75 53.1046 10.6454 54 11.75 54ZM70.5 51.0555C70.5 52.1601 69.6046 53.0555 68.5 53.0555C67.3954 53.0555 66.5 52.1601 66.5 51.0555C66.5 49.951 67.3954 49.0555 68.5 49.0555C69.6046 49.0555 70.5 49.951 70.5 51.0555Z" fill="#151716"/>
<path d="M27.5 54C27.5 54 27.2213 56.8703 25.5 60C23.7787 63.1297 21.5 64 21.5 64" stroke="#151716" stroke-width="2"/>
<path d="M17.8819 51.412C17.8819 51.412 17.9604 52.91 17.0403 54.4603C16.1202 56.0105 14.6746 57.0877 14.6746 57.0877" stroke="#151716"/>
<path d="M62.3301 51.5C62.3301 51.5 62.3301 53 63.3301 54.5C64.3301 56 65.8301 57 65.8301 57" stroke="#151716"/>
<path d="M53 54C53 54 53.2787 56.8703 55 60C56.7213 63.1297 59 64 59 64" stroke="#151716" stroke-width="2"/>
<path d="M4 52.5C4.33333 52.5 5.72025 52.0013 7.32025 49.6013C8.92025 47.2013 9 45.5 9 45" stroke="#151716"/>
<path d="M76.2246 52.5C75.8913 52.5 74.4232 51.3166 72.8232 48.9166C71.2232 46.5166 71.2246 45.5 71.2246 45" stroke="#151716"/>
<path d="M25.5859 75.5986H54.4922" stroke="#151716" stroke-width="2" stroke-linecap="round"/>
</svg>
